<?xml version="1.0" encoding="UTF-8" standalone="no"?>
<svg
   viewBox="0 0 128 128"
   width="128px"
   height="128px"
   version="1.1"
   id="svg6"
   sodipodi:docname="logo4.svg"
   inkscape:version="1.4 (e7c3feb1, 2024-10-09)"
   xmlns:inkscape="http://www.inkscape.org/namespaces/inkscape"
   xmlns:sodipodi="http://sodipodi.sourceforge.net/DTD/sodipodi-0.dtd"
   xmlns="http://www.w3.org/2000/svg"
   xmlns:svg="http://www.w3.org/2000/svg">
  <defs
     id="defs6" />
  <sodipodi:namedview
     id="namedview6"
     pagecolor="#ffffff"
     bordercolor="#000000"
     borderopacity="0.25"
     inkscape:showpageshadow="2"
     inkscape:pageopacity="0.0"
     inkscape:pagecheckerboard="0"
     inkscape:deskcolor="#d1d1d1"
     inkscape:zoom="3.0027658"
     inkscape:cx="85.754273"
     inkscape:cy="65.273155"
     inkscape:window-width="1672"
     inkscape:window-height="921"
     inkscape:window-x="0"
     inkscape:window-y="44"
     inkscape:window-maximized="0"
     inkscape:current-layer="svg6" />
  <path
     fill="#d3d8dd"
     d="M101,29h20V19c0-5.5-4.5-10-10-10h0c-5.5,0-10,4.5-10,10V29z"
     id="path1" />
  <path
     fill="#fff"
     d="M111,9H27c-5.5,0-10,4.5-10,10v100h74c5.5,0,10-4.5,10-10V19C101,13.5,105.5,9,111,9L111,9z"
     id="path2" />
  <path
     fill="#d3d8dd"
     d="M81 62H37c-1.7 0-3-1.3-3-3s1.3-3 3-3h44c1.7 0 3 1.3 3 3S82.7 62 81 62zM71 32H47c-1.7 0-3-1.3-3-3s1.3-3 3-3h24c1.7 0 3 1.3 3 3S72.7 32 71 32z"
     id="path3"
     style="fill:#aab4bd;fill-opacity:1" />
  <path
     fill="#fff"
     d="M81,109V99H7v10c0,5.5,4.5,10,10,10h74C85.5,119,81,114.5,81,109z"
     id="path4" />
  <path
     fill="#444b54"
     d="M111,6H27c-7.2,0-13,5.8-13,13v67c0,1.7,1.3,3,3,3s3-1.3,3-3V19c0-3.9,3.1-7,7-7h73c-1.3,2-2,4.4-2,7v90c0,3.9-3.1,7-7,7s-7-3.1-7-7V99c0-1.7-1.3-3-3-3H7c-1.7,0-3,1.3-3,3v10c0,7.2,5.8,13,13,13h74c7.2,0,13-5.8,13-13V19c0-3.9,3.1-7,7-7s7,3.1,7,7v7h-7c-1.7,0-3,1.3-3,3s1.3,3,3,3h10c1.7,0,3-1.3,3-3V19C124,11.8,118.2,6,111,6z M17,116c-3.9,0-7-3.1-7-7v-7h68v7c0,2.6,0.8,5,2,7H17z"
     id="path5" />
  <path
     fill="#d3d8dd"
     d="M66.2 77h-29c-1.7 0-3-1.3-3-3s1.3-3 3-3h29c1.7 0 3 1.3 3 3S67.9 77 66.2 77zM81.2 77H81c-1.7 0-3-1.3-3-3s1.3-3 3-3h.2c1.7 0 3 1.3 3 3S82.9 77 81.2 77z"
     id="path6"
     style="fill:#aab4bd;fill-opacity:1" />
</svg>
